<svg id="_Слой_1" data-name="Слой 1" xmlns="http://www.w3.org/2000/svg" viewBox="0 0 330.41 169.02"><defs><style>.cls-1{fill:#213f2e;stroke-width:0}</style></defs><path class="cls-1" d="M47.66 77.28h6.4l10.57 26.81h-5.71l-2.45-6.59H45.25l-2.49 6.59h-5.67l10.57-26.81zm7.39 16.12l-4.1-11.15h-.19l-4.1 11.15h8.39zM34.26 55.37c.12.29.34.48.55.48h6.05c3.81 0 6.9 3.46 6.9 7.71v1.91h4.38V53.86H34.48c-.33.52-.42 1.06-.22 1.51z"/><path class="cls-1" d="M41.92 27.39c-4.06-2.76-8.35-4.15-12.74-4.15-3.63 0-7.04.97-10.13 2.9-3.16 1.97-6 4.68-8.44 8.06-2.45 3.41-4.36 7.46-5.68 12.04-1.33 4.62-2.01 9.74-2.01 15.22v33.48c0 16.07 6.44 36.75 26.31 36.75 4.97 0 10.17-1.03 14.17-3.14 4.16-2.2 6.36-4.52 8.81-7.97v-7.3h-5.54V120c0 3.94-4.98 5.63-8.06 6.48-5.68 1.57-12.98 1.89-18.23-1.21-11.24-6.62-10.15-23.4-10.15-34.46v-31.2c0-10.29 1.76-18.48 5.24-24.33 3.63-6.11 8.74-9.21 15.2-9.21s12.15 3.18 17.32 9.47l1.25-1.08c-2.16-2.87-4.6-5.25-7.31-7.08z"/></svg>