<?xml version="1.0" encoding="UTF-8"?>
<svg id="_Слой_1" data-name="Слой 1" xmlns="http://www.w3.org/2000/svg" viewBox="0 0 420.41 169.02">
  <defs>
    <style>
      .cls-1 {
        fill: #0c0707;
        stroke-width: 0px;
      }
    </style>
  </defs>
  <g>
    <path class="cls-1" d="m93.66,77.28h6.4l10.57,26.81h-5.71l-2.45-6.59h-11.22l-2.49,6.59h-5.67l10.57-26.81Zm7.39,16.12l-4.1-11.15h-.19l-4.1,11.15h8.39Z"/>
    <path class="cls-1" d="m125.38,77.28h12.06c5.9,0,9.27,3.22,9.27,7.81,0,3.91-3.14,6.32-6.36,6.4v.19c3.75.31,5.32,2.49,5.71,5.97.34,3.6.61,5.36,1.03,6.43h-5.52c-.31-.73-.65-2.22-.96-5.59-.27-2.8-1.26-3.98-4.21-3.98h-5.74v9.58h-5.29v-26.81Zm10.72,13.14c2.76,0,5.25-1.42,5.25-4.63,0-3.03-2.41-4.29-5.21-4.29h-5.48v8.92h5.44Z"/>
    <path class="cls-1" d="m163.41,77.28h10.46c8.31,0,13.21,5.29,13.21,13.41,0,9.92-6.97,13.4-13.21,13.4h-10.46v-26.81Zm9.58,22.56c4.44,0,8.62-2.26,8.62-9.12s-4.17-9.19-8.62-9.19h-4.29v18.31h4.29Z"/>
    <path class="cls-1" d="m203.16,77.28h19.57v4.37h-14.29v6.66h12.52v4.25h-12.52v7.16h14.75v4.37h-20.03v-26.81Z"/>
    <path class="cls-1" d="m239.47,77.28h5.48l12.37,19.04-.11-19.04h5.25v26.81h-5.48l-12.37-18.77.11,18.77h-5.25v-26.81Z"/>
    <path class="cls-1" d="m279.61,77.28h5.32v26.81h-5.32v-26.81Z"/>
    <path class="cls-1" d="m301.82,94.17v-16.89h5.36v16.32c0,3.87,1.69,6.59,5.78,6.59s5.86-2.72,5.86-6.59v-16.32h5.32v16.89c0,7.47-4.98,10.53-11.18,10.53s-11.15-3.06-11.15-10.53Z"/>
    <path class="cls-1" d="m341.04,77.28h7.58l7.01,21.75h.23l7.05-21.75h7.58v26.81h-5.09l.15-20.03h-.19l-6.74,20.03h-5.67l-6.78-20.03h-.15l.15,20.03h-5.13v-26.81Z"/>
  </g>
  <g>
    <path class="cls-1" d="m163.41,118.34h.69v8h-.69v-8Z"/>
    <path class="cls-1" d="m171.32,118.34h.86l4.22,6.9h.1v-6.9h.69v8h-.83l-4.23-6.93h-.11v6.93h-.69v-8Z"/>
    <path class="cls-1" d="m183.37,118.34h.73l2.5,7.2h.11l2.48-7.2h.73l-2.8,8h-.95l-2.81-8Z"/>
    <path class="cls-1" d="m196.08,118.34h4.61v.65h-3.92v2.91h3.69v.65h-3.69v3.13h4.03v.65h-4.72v-8Z"/>
    <path class="cls-1" d="m209.74,126.44c-.26,0-.53-.02-.8-.07-.27-.05-.54-.12-.79-.22-.26-.1-.5-.22-.74-.37s-.45-.32-.63-.51l.45-.53c.31.34.7.59,1.15.77.46.18.93.26,1.41.26.6,0,1.09-.14,1.45-.41.37-.27.55-.64.55-1.11,0-.27-.06-.49-.18-.67-.12-.18-.29-.34-.49-.47-.21-.13-.44-.25-.71-.34-.27-.09-.54-.18-.82-.27-.31-.09-.62-.19-.93-.31-.31-.11-.59-.25-.83-.42-.24-.16-.44-.37-.59-.61-.15-.24-.23-.54-.23-.89s.07-.63.2-.89c.13-.26.32-.47.55-.64.23-.17.5-.3.82-.39.31-.09.64-.14.99-.14.52,0,1.01.09,1.49.27.47.18.86.43,1.15.75l-.45.49c-.27-.27-.6-.48-.99-.62-.39-.14-.79-.21-1.21-.21-.56,0-1.02.13-1.35.38s-.51.58-.51.98c0,.24.06.45.19.62.13.17.3.31.52.43.22.12.47.22.75.32s.57.19.87.28c.3.1.59.21.89.33s.56.26.79.43c.23.17.42.38.57.63.15.25.22.55.22.91s-.07.68-.22.95-.34.51-.59.7c-.25.19-.54.34-.88.43-.34.1-.69.15-1.07.15Z"/>
    <path class="cls-1" d="m220.35,118.99h-2.45v-.65h5.58v.65h-2.45v7.35h-.69v-7.35Z"/>
    <path class="cls-1" d="m229.71,118.34h1.09l2.7,5.9h.07l2.7-5.9h1.09v8h-.69v-7.16h-.07l-2.72,5.93h-.69l-2.72-5.93h-.07v7.16h-.69v-8Z"/>
    <path class="cls-1" d="m244.56,118.34h4.61v.65h-3.92v2.91h3.69v.65h-3.69v3.13h4.03v.65h-4.72v-8Z"/>
    <path class="cls-1" d="m255.98,118.34h.86l4.22,6.9h.1v-6.9h.69v8h-.83l-4.23-6.93h-.11v6.93h-.69v-8Z"/>
    <path class="cls-1" d="m270.53,118.99h-2.45v-.65h5.58v.65h-2.45v7.35h-.69v-7.35Z"/>
    <path class="cls-1" d="m291.03,126.42c-.56,0-1.07-.1-1.53-.3-.46-.2-.86-.48-1.18-.85-.33-.36-.58-.79-.77-1.29-.18-.5-.27-1.04-.27-1.63v-.03c0-.59.09-1.13.28-1.62.19-.5.45-.92.78-1.29.33-.36.73-.65,1.19-.85.46-.21.97-.31,1.51-.31.34,0,.65.04.95.13.3.08.58.2.83.35.25.15.49.32.69.53.21.2.38.42.53.67l-.59.37c-.25-.43-.58-.77-.99-1.01-.41-.24-.88-.35-1.42-.35-.46,0-.87.08-1.25.25-.37.17-.69.4-.96.7-.27.3-.47.65-.62,1.07s-.22.87-.22,1.37v.07c0,.5.07.95.22,1.37s.35.77.62,1.07c.27.3.59.53.96.7.37.17.79.25,1.25.25.56,0,1.05-.12,1.49-.37.44-.25.77-.58,1-1l.56.37c-.14.24-.31.46-.51.66-.21.21-.44.38-.7.53s-.55.26-.86.35c-.31.08-.64.13-.97.13h-.01Z"/>
    <path class="cls-1" d="m299.74,122.32c0-.59.1-1.13.29-1.62.19-.5.46-.92.79-1.29.34-.36.74-.65,1.21-.85.46-.21.98-.31,1.53-.31h.01c.56,0,1.07.1,1.53.3.46.2.87.48,1.21.85.34.36.6.79.79,1.29.19.5.29,1.04.29,1.62v.07c0,.59-.1,1.13-.29,1.62-.19.5-.46.92-.79,1.28s-.74.64-1.21.84c-.47.2-.98.3-1.53.3h-.01c-.56,0-1.07-.1-1.53-.3s-.87-.48-1.21-.85c-.34-.36-.6-.79-.79-1.29-.19-.5-.29-1.04-.29-1.62v-.05Zm.72.06c0,.49.08.94.23,1.35.15.42.37.77.64,1.07.27.3.6.54.98.7.38.17.8.25,1.26.25h.02c.45,0,.86-.08,1.24-.25.38-.17.7-.4.97-.7.27-.3.48-.66.63-1.07s.23-.87.23-1.35v-.07c0-.5-.08-.95-.23-1.37s-.36-.77-.63-1.07c-.27-.3-.6-.53-.98-.7s-.8-.25-1.26-.25h-.02c-.45,0-.86.08-1.24.25s-.7.4-.98.7-.49.65-.64,1.07c-.15.42-.23.87-.23,1.37v.07Z"/>
    <path class="cls-1" d="m313.97,118.34h1.09l2.7,5.9h.07l2.7-5.9h1.09v8h-.69v-7.16h-.07l-2.72,5.93h-.69l-2.72-5.93h-.07v7.16h-.69v-8Z"/>
    <path class="cls-1" d="m328.82,118.34h2.47c.41,0,.79.06,1.13.18.34.12.64.29.89.5s.44.48.57.79c.13.31.2.65.2,1.03v.06c0,.37-.07.71-.2,1.02-.13.3-.32.57-.56.78s-.53.38-.87.5c-.34.12-.72.18-1.13.18h-1.81v2.96h-.69v-8Zm2.47,4.39c.64,0,1.15-.16,1.51-.49.37-.32.55-.77.55-1.33v-.06c0-.57-.19-1.02-.56-1.36-.37-.34-.88-.5-1.51-.5h-1.78v3.74h1.78Z"/>
    <path class="cls-1" d="m341.88,118.34h1.02l3.03,8h-.74l-.9-2.41h-3.79l-.89,2.41h-.75l3.04-8Zm2.16,4.94l-1.62-4.32h-.07l-1.61,4.32h3.3Z"/>
    <path class="cls-1" d="m352.07,118.34h.86l4.22,6.9h.1v-6.9h.69v8h-.83l-4.23-6.93h-.11v6.93h-.69v-8Z"/>
    <path class="cls-1" d="m366.94,123.14l-2.87-4.8h.8l2.37,4.01h.09l2.37-4.01h.8l-2.87,4.8v3.2h-.69v-3.2Z"/>
  </g>
  <g>
    <path class="cls-1" d="m80.26,55.37c.12.29.34.48.55.48h6.05c3.81,0,6.9,3.46,6.9,7.71v1.91h4.38v-11.61h-17.66c-.33.52-.42,1.06-.22,1.51Z"/>
    <path class="cls-1" d="m87.92,27.39c-4.06-2.76-8.35-4.15-12.74-4.15-3.63,0-7.04.97-10.13,2.9-3.16,1.97-6,4.68-8.44,8.06-2.45,3.41-4.36,7.46-5.68,12.04-1.33,4.62-2.01,9.74-2.01,15.22v33.48c0,16.07,6.44,36.75,26.31,36.75,4.97,0,10.17-1.03,14.17-3.14,4.16-2.2,6.36-4.52,8.81-7.97v-7.3h-5.54s0,6.71,0,6.72c0,3.94-4.98,5.63-8.06,6.48-5.68,1.57-12.98,1.89-18.23-1.21-11.24-6.62-10.15-23.4-10.15-34.46v-25.05c0-2.05,0-4.1,0-6.15,0-10.29,1.76-18.48,5.24-24.33,3.63-6.11,8.74-9.21,15.2-9.21s12.15,3.18,17.32,9.47l1.25-1.08c-2.16-2.87-4.6-5.25-7.31-7.08Z"/>
  </g>
</svg>